<svg width="400" height="400" viewBox="0 0 400 400" fill="none" xmlns="http://www.w3.org/2000/svg">
  <path d="M176.667 88.2668C142 123.333 129.333 147.067 129.333 178C129.333 196.8 136 213.2 149.333 226.8C173.733 251.733 214.534 254.8 243.334 233.733C250 228.933 260.134 214.133 264.8 202.533C273.334 181.467 269.067 151.733 253.734 126.4C241.2 105.6 206.4 68.0001 199.6 68.0001C197.733 68.0001 190.133 74.6668 176.667 88.2668ZM218.134 90.9335C238.134 111.6 246 122 254.134 139.333C261.734 155.467 264.4 167.733 263.6 183.067C263.067 193.6 262.4 196.133 257.6 205.733C251.467 218 239.334 231.6 230.534 236.133C205.467 248.8 168 240.933 149.867 219.067C138.267 205.067 134.667 195.067 134.667 176.933C134.667 149.733 143.2 131.333 170 100.8C177.733 92.0001 198.133 73.3335 200 73.3335C200.533 73.3335 208.667 81.3335 218.134 90.9335Z" fill="black"/>
  <path d="M228 151.067C228 155.733 227.333 161.6 226.533 164.133C222.933 174.667 212.133 184.933 201.067 188.267C194.4 190.267 194.267 193.333 200.933 193.333C210.267 193.333 225.6 180.533 230.933 168.267C232.8 164.267 233.733 159.067 233.867 152.8C234 144 233.867 143.333 231.067 142.933C228.133 142.533 228 142.933 228 151.067Z" fill="black"/>
</svg>